# xmcd CD database file
#
# Track frame offsets:
#	150
#	11310
#	26567
#	40937
#	53320
#	70722
#	81170
#	95590
#	109457
#	125802
#
# Disc length: 1784 seconds
#
# Revision: 8
# Processed by: cddbd v1.5.2PL0 Copyright (c) Steve Scherf et al.
# Submitted via: CDex 1.70beta2
#
DISCID=7a06f60a
DTITLE=Lee Greenwood - American Patriot
DYEAR=1992
DGENRE=Country
TTITLE0=The Pledge Of Allegiance
TTITLE1=America
TTITLE2=God Bless The U.S.A.
TTITLE3=This Land Is Your Land
TTITLE4=The Battle Hymn Of The Republic
TTITLE5=God Bless America
TTITLE6=Dixie
TTITLE7=The Great Defenders
TTITLE8=America The Beautiful
TTITLE9=Star Spangled Banner
EXTD=YEAR: 1992
EXTT0=
EXTT1=
EXTT2=
EXTT3=
EXTT4=
EXTT5=
EXTT6=
EXTT7=
EXTT8=
EXTT9=
PLAYORDER=
